<?xml version="1.0" encoding="UTF-8"?>
<svg id="Layer_2" xmlns="http://www.w3.org/2000/svg" version="1.1" viewBox="0 0 250 250">
  <!-- Generator: Adobe Illustrator 29.4.0, SVG Export Plug-In . SVG Version: 2.1.0 Build 152)  -->
  <defs>
    <style>
      .st0 {
        fill: #fff;
      }
    </style>
  </defs>
  <rect width="250" height="250" rx="11.3" ry="11.3"/>
  <g id="Layer_1-2">
    <path class="st0" d="M137,118.5v37.9c0,1.4-1.1,2.5-2.5,2.5h-17.9c-1.4,0-2.5-1.1-2.5-2.5v-62.9c0-1.4,1.1-2.5,2.5-2.5h54.9c1.4,0,2.5-1.1,2.5-2.5v-37.9c0-1.4-1.1-2.5-2.5-2.5h-91.9c-1.4,0-2.5,1.1-2.5,2.5v37.9c0,1.4-1.1,2.5-2.5,2.5h-30.9c-1.4,0-2.5,1.1-2.5,2.5v62.9c0,1.4,1.1,2.5,2.5,2.5h29.9c1.4,0,2.5,1.1,2.5,2.5v37.9c0,1.4,1.1,2.5,2.5,2.5h91.9c1.4,0,2.5-1.1,2.5-2.5v-37.9c0-1.4,1.1-2.5,2.5-2.5h30.9c1.4,0,2.5-1.1,2.5-2.5v-37.9c0-1.4-1.1-2.5-2.5-2.5h-66.9c-1.4,0-2.5,1.1-2.5,2.5h0Z"/>
  </g>
</svg>