<?xml version="1.0" encoding="UTF-8"?>
<svg id="Layer_1" xmlns="http://www.w3.org/2000/svg" version="1.1" viewBox="0 0 250 250">
  <!-- Generator: Adobe Illustrator 30.2.1, SVG Export Plug-In . SVG Version: 2.1.1 Build 1)  -->
  <defs>
    <style>
      .st0 {
        fill: #595959;
      }
    </style>
  </defs>
  <circle class="st0" cx="204.3" cy="95.8" r="34.7"/>
  <path class="st0" d="M149.3,149.4c-9.4-15.4-2.8-23.6,4.9-37.4,4.6-8.5,5.6-18.7,2.4-27.8-5.3-15.9-23.2-26.2-39.6-22.2-7.2,1.5-13.4,5.9-19.7,9.4-16.8,9.6-25.3-1.8-40-7.9-25.5-10.1-52.4,14-45.2,40.6,5.6,21.4,30.5,32,49.7,21.1,6.3-3.2,12.2-8,19.3-9.2,10.8-2.3,22.1,6.2,22.8,17.2,1.2,11.9-9.4,20.8-12.4,31.8-6.8,22.7,11.8,45.8,35.5,43.6,15-1,27.9-12.5,30.6-27.4,2.5-11.8-2.2-22.1-8.4-31.7v-.2c0,0,0,0,0,0Z"/>
</svg>