<?xml version="1.0" encoding="UTF-8"?>
<svg id="Genetik_Logos" data-name="Genetik Logos" xmlns="http://www.w3.org/2000/svg" viewBox="0 0 1094.45 999.97">
  <defs>
    <style>
      .cls-1 {
        fill: #fff;
      }
    </style>
  </defs>
  <path id="Genetik_Icon" class="cls-1" d="M625.53,457.91v246.21c0,9.14-7.41,16.55-16.55,16.55h-123.52c-9.14,0-16.55-7.41-16.55-16.55v-408.27c0-9.14,7.41-16.55,16.55-16.55h360.72c9.14,0,16.55-7.41,16.55-16.55V16.55c0-9.14-7.41-16.55-16.55-16.55H248.26c-9.14,0-16.55,7.41-16.55,16.55v246.21c0,9.14-7.41,16.55-16.55,16.55H16.55C7.41,279.3,0,286.71,0,295.85v408.27C0,713.26,7.41,720.67,16.55,720.67h198.62c9.14,0,16.55,7.41,16.55,16.55v246.21c0,9.14,7.41,16.55,16.55,16.55h597.93c9.14,0,16.55-7.41,16.55-16.55v-246.21c0-9.14,7.41-16.55,16.55-16.55h198.62c9.14,0,16.55-7.41,16.55-16.55v-246.21c0-9.14-7.41-16.55-16.55-16.55h-435.82c-9.14,0-16.55,7.41-16.55,16.55Z"/>
</svg>