<?xml version="1.0" encoding="UTF-8"?>
<svg id="Genetik_Logos" xmlns="http://www.w3.org/2000/svg" version="1.1" viewBox="0 0 1094.5 1000">
  <!-- Generator: Adobe Illustrator 30.5.1, SVG Export Plug-In . SVG Version: 2.1.4 Build 3)  -->
  <defs>
    <style>
      .st0 {
        fill: #8b8f91;
      }
    </style>
  </defs>
  <path id="Genetik_Icon" class="st0" d="M625.5,457.9v246.2c0,9.1-7.4,16.5-16.5,16.5h-123.5c-9.1,0-16.5-7.4-16.5-16.5v-408.3c0-9.1,7.4-16.5,16.5-16.5h360.7c9.1,0,16.5-7.4,16.5-16.5V16.5c0-9.1-7.4-16.5-16.5-16.5H248.3c-9.1,0-16.6,7.4-16.6,16.5v246.2c0,9.1-7.4,16.5-16.6,16.5H16.5c-9.1,0-16.5,7.4-16.5,16.5v408.3c0,9.1,7.4,16.5,16.5,16.5h198.6c9.1,0,16.6,7.4,16.6,16.5v246.2c0,9.1,7.4,16.5,16.6,16.5h597.9c9.1,0,16.5-7.4,16.5-16.5v-246.2c0-9.1,7.4-16.5,16.5-16.5h198.6c9.1,0,16.6-7.4,16.6-16.5v-246.2c0-9.1-7.4-16.5-16.6-16.5h-435.8c-9.1,0-16.5,7.4-16.5,16.5h0Z"/>
</svg>