<?xml version="1.0" encoding="UTF-8"?>
<svg id="Layer_1" xmlns="http://www.w3.org/2000/svg" version="1.1" viewBox="0 0 768.7 133.1">
  <!-- Generator: Adobe Illustrator 30.2.1, SVG Export Plug-In . SVG Version: 2.1.1 Build 1)  -->
  <defs>
    <style>
      .st0 {
        fill: #fff;
      }
    </style>
  </defs>
  <g>
    <path class="st0" d="M302,31.6h-29.8c-.9,0-1.5-.7-1.5-1.5v-10c0-.9.7-1.5,1.5-1.5h74.1c.9,0,1.5.7,1.5,1.5v10c0,.9-.7,1.5-1.5,1.5h-29.7v87.1c0,.8-.7,1.5-1.5,1.5h-11.5c-.9,0-1.5-.7-1.5-1.5V31.6h0Z"/>
    <path class="st0" d="M336.5,100.4c0-12.5,8.3-19.2,23.3-21.3l14.6-2.2c7.7-1.1,10.6-3,10.6-9.2s-5.6-10.3-14.3-10.3-15,3.7-17.5,11.8c-.2.7-.8,1.1-1.5,1.1h-11.5c-1,0-1.8-1-1.5-2,4.4-14.4,15.1-22.6,32.1-22.6s28.6,8.6,28.6,25.5v47.6c0,.8-.7,1.5-1.5,1.5h-10.2c-.9,0-1.5-.7-1.5-1.5v-10.6h-1c-4.3,9-12.6,13.5-22.9,13.5-15.9,0-25.8-7.9-25.8-21.2h0ZM385.1,90.2v-6.6c-2.3,2.6-5.7,3.6-9.9,4.2l-11.7,1.6c-8,1.2-12.7,3.3-12.7,9.7v1.4c0,6.4,5.1,9.6,14,9.6s20.3-7.3,20.3-19.9h0Z"/>
    <path class="st0" d="M416.5,18.6h11.1c.9,0,1.5.7,1.5,1.5v37.8h1c4.5-8.2,12.2-12.4,23-12.3,14.8,0,26.8,12.2,26.8,27.1v46c0,.8-.7,1.5-1.5,1.5h-11.4c-.9,0-1.5-.7-1.5-1.5v-43.1c0-11.2-5.3-17.3-16.6-17.3s-19.6,7.6-19.6,20.8v39.7c0,.8-.7,1.5-1.5,1.5h-11.2c-.9,0-1.5-.7-1.5-1.5V20.1c0-.9.7-1.5,1.5-1.5h0Z"/>
    <path class="st0" d="M492.6,108.1h15.4v-48.8h-15.4c-.9,0-1.5-.7-1.5-1.5v-9.2c0-.8.7-1.5,1.5-1.5h27.1c.8,0,1.5.7,1.5,1.5v11.1h.9c2.7-8.2,9-12.6,19.3-12.6h7.9c.8,0,1.5.7,1.5,1.5v10.9c0,.9-.7,1.5-1.5,1.5h-9.6c-10.9-.3-17.5,5.6-17.5,18.5v28.6h22.1c.8,0,1.5.7,1.5,1.5v9.1c0,.8-.7,1.5-1.5,1.5h-51.8c-.9,0-1.5-.7-1.5-1.5v-9.1c0-.8.7-1.5,1.5-1.5h0Z"/>
    <path class="st0" d="M553.8,83.6c0-23.2,13.6-37.9,34.8-37.9s33.6,14.6,33.6,35.8,0,3.1,0,4.5c0,.8-.7,1.5-1.5,1.5h-52.5c.3,14.9,7.7,21.9,20.3,21.9s15-3.4,18-11.7c.2-.6.8-1,1.5-1h11.4c1,0,1.8,1,1.5,2-4.2,14.4-16.1,22.9-32.1,22.9s-34.8-14.8-34.8-37.9h0ZM588.4,57.6c-11.6,0-19,6-20.2,18.7h39.4c-.9-12.2-7.4-18.8-19.2-18.7Z"/>
    <path class="st0" d="M630.5,83.6c0-23.2,13.6-37.9,34.8-37.9s33.6,14.6,33.6,35.8,0,3.1,0,4.5c0,.8-.7,1.5-1.5,1.5h-52.5c.3,14.9,7.7,21.9,20.3,21.9s15-3.4,18-11.7c.2-.6.8-1,1.5-1h11.4c1,0,1.8,1,1.5,2-4.2,14.4-16.1,22.9-32.1,22.9s-34.8-14.8-34.8-37.9h0ZM665.2,57.6c-11.6,0-19,6-20.2,18.7h39.4c-.9-12.2-7.4-18.8-19.2-18.7Z"/>
    <path class="st0" d="M707.1,107.7c0-.4.1-.8.4-1l42.5-46.5v-.9h-40.4c-.8,0-1.5-.7-1.5-1.5v-9.2c0-.8.7-1.5,1.5-1.5h56.6c.8,0,1.5.7,1.5,1.5v11c0,.4-.1.8-.4,1l-42.5,46.5v1h42.3c.8,0,1.5.7,1.5,1.5v9.1c0,.8-.7,1.5-1.5,1.5h-58.5c-.8,0-1.5-.7-1.5-1.5v-11h0Z"/>
  </g>
  <g>
    <circle class="st0" cx="174.3" cy="31.2" r="31.2"/>
    <path class="st0" d="M124.7,79.6c-8.5-13.9-2.5-21.3,4.5-33.7,4.1-7.7,5.1-16.8,2.1-25C126.5,6.5,110.4-2.8,95.6.9c-6.5,1.4-12.1,5.3-17.8,8.5-15.2,8.6-22.9-1.6-36-7.2C18.8-6.9-5.4,14.8,1.1,38.8c5,19.3,27.5,28.8,44.8,19,5.7-2.9,11-7.2,17.4-8.3,9.8-2,19.9,5.6,20.6,15.5,1,10.8-8.5,18.8-11.1,28.7-6.2,20.4,10.7,41.3,32,39.3,13.5-.9,25.2-11.2,27.6-24.7,2.2-10.7-2-19.9-7.6-28.6h0c0-.1,0-.2,0-.2Z"/>
    <path class="st0" d="M147.8,131.7c-1.5-.9-2.6-2-3.5-3.5-.9-1.5-1.3-3.1-1.3-4.8s.4-3.3,1.3-4.8,2-2.6,3.5-3.5,3.1-1.3,4.8-1.3,3.3.4,4.8,1.3c1.5.9,2.6,2,3.5,3.5s1.3,3.1,1.3,4.8-.4,3.3-1.3,4.8c-.9,1.5-2,2.6-3.5,3.5-1.5.9-3.1,1.3-4.8,1.3s-3.3-.4-4.8-1.3ZM156.4,130.1c1.2-.7,2.1-1.6,2.8-2.8s1-2.5,1-3.9-.3-2.7-1-3.9c-.7-1.2-1.6-2.1-2.8-2.8-1.2-.7-2.4-1-3.8-1s-2.6.3-3.8,1c-1.2.7-2.1,1.6-2.8,2.8-.7,1.2-1,2.5-1,3.9s.3,2.7,1,3.9c.7,1.2,1.6,2.1,2.8,2.8s2.4,1.1,3.8,1.1,2.7-.4,3.8-1.1ZM148.9,118.4h4.6c1.1,0,2,.2,2.6.8.7.5,1,1.2,1,2.1s-.2,1.3-.6,1.8c-.4.5-1,.8-1.7.9h0c.4.2.8.4,1,.8.3.3.5.8.7,1.5l.6,2h-2.3l-.5-1.9c-.1-.4-.3-.8-.4-1-.1-.2-.3-.4-.6-.4-.2,0-.6-.1-1-.1h-1.3v3.4h-2.2v-9.9h0ZM154.4,122.7c.3-.2.5-.6.5-1.1s-.1-.8-.4-1-.7-.4-1.2-.4h-2.3v2.8h2c.6,0,1-.1,1.4-.4Z"/>
  </g>
</svg>